<svg version="1.1" id="Layer_1" xmlns="http://www.w3.org/2000/svg" xmlns:xlink="http://www.w3.org/1999/xlink" x="0px" y="0px"
	 width="100%" viewBox="0 0 128 128" enable-background="new 0 0 128 128" xml:space="preserve">
<path fill="#393939" opacity="1.000000" stroke="none" 
	d="
M1.264231,104.295593 
	C1.000000,78.312439 1.000000,52.624878 1.000000,26.468658 
	C2.841077,24.199286 2.079531,21.569611 3.121072,19.467995 
	C7.798500,10.029891 14.726812,3.468612 25.704403,1.264231 
	C34.020901,1.000000 42.041798,1.000000 50.531349,1.000000 
	C55.138634,2.905201 59.769108,3.272436 63.926014,5.195525 
	C65.468300,5.909023 67.206017,5.140681 68.689415,4.327658 
	C71.745445,2.652707 75.269424,2.636991 78.737045,1.250640 
	C87.020897,1.000000 95.041801,1.000000 103.531349,1.000000 
	C105.800705,2.841028 108.430351,2.079562 110.531898,3.121015 
	C119.970169,7.798290 126.531265,14.726853 128.735779,25.704403 
	C129.000000,36.020893 129.000000,46.041790 129.000000,56.531342 
	C128.040512,57.799629 127.404961,59.062794 125.962288,59.174690 
	C119.181824,59.700584 112.392776,59.801594 105.626610,59.105434 
	C103.151306,58.850750 102.692001,56.734161 102.585770,54.652210 
	C102.407532,51.159142 102.541954,47.660652 102.479164,44.165066 
	C102.434280,41.666210 102.392250,39.164017 101.706345,36.734795 
	C100.297493,31.745228 96.470848,28.502159 91.765022,28.283623 
	C87.062469,28.065239 82.851616,30.906328 80.945351,35.641743 
	C79.413155,39.447926 79.510658,43.472073 79.516052,47.465630 
	C79.533432,60.328064 79.971375,59.482605 67.221329,59.497486 
	C63.392258,59.501957 59.563206,59.511089 55.734043,59.464561 
	C52.276539,59.422546 50.564663,57.770596 50.537376,54.248524 
	C50.509010,50.586571 50.571217,46.922459 50.416172,43.261757 
	C50.288548,40.248428 49.973125,37.257278 48.520630,34.550350 
	C46.278862,30.372492 42.813118,28.094793 37.989029,28.318598 
	C33.644402,28.520157 30.024860,31.534355 28.505316,36.014931 
	C27.636408,38.577019 27.539452,41.245380 27.529341,43.912079 
	C27.476318,57.897255 27.410677,71.883247 27.543858,85.867516 
	C27.661615,98.232056 31.781208,102.345490 44.148033,102.457985 
	C58.132378,102.585190 72.118370,102.533859 86.103462,102.465515 
	C89.778687,102.447556 93.471214,102.320633 96.685707,100.182030 
	C98.553040,98.939682 100.224968,97.361763 99.723160,94.898567 
	C99.191872,92.290710 96.865189,91.805420 94.662247,91.692886 
	C86.344788,91.268013 78.017509,91.581802 69.694626,91.502823 
	C65.033348,91.458588 60.371895,91.521690 55.710056,91.451126 
	C52.526436,91.402931 50.666054,90.051666 50.590660,86.713287 
	C50.444042,80.221504 50.437874,73.729485 50.594280,67.237892 
	C50.675358,63.872780 52.618546,62.591194 55.771667,62.548233 
	C62.431244,62.457497 69.090637,62.510662 75.750038,62.504234 
	C91.067047,62.489449 106.384125,62.483337 121.701057,62.518585 
	C124.060905,62.524017 126.614510,62.111835 128.690735,64.687210 
	C129.000000,77.687561 129.000000,90.375122 129.000000,103.531342 
	C127.158958,105.800674 127.920761,108.430290 126.879349,110.531746 
	C122.202011,119.970139 115.273102,126.531059 104.295593,128.735779 
	C78.312439,129.000000 52.624878,129.000000 26.468658,129.000000 
	C24.199280,127.158974 21.569626,127.920456 19.468040,126.878960 
	C10.029862,122.201599 3.468652,115.273178 1.264231,104.295593 
z"/>
<path fill="#000000" opacity="1.000000" stroke="none" 
	d="
M129.000000,64.555832 
	C105.838913,65.001305 82.676720,65.121841 59.517605,64.908791 
	C54.562466,64.863205 52.468548,66.265869 52.933311,71.404953 
	C53.292049,75.371689 53.234097,79.412735 52.949696,83.391304 
	C52.628632,87.882744 54.582008,89.121712 58.812210,89.062599 
	C72.139671,88.876381 85.471748,88.959312 98.801277,89.049751 
	C100.814842,89.063416 103.480705,88.114586 104.567116,90.726585 
	C105.578491,93.158188 104.879341,95.637375 103.466263,97.858147 
	C100.499687,102.520393 96.535057,105.101608 90.730080,105.049576 
	C73.568932,104.895752 56.405430,105.026993 39.243023,104.980980 
	C30.456421,104.957428 25.039268,99.490204 25.017193,90.640320 
	C24.974796,73.644524 24.982273,56.648502 25.012787,39.652649 
	C25.028095,31.125940 30.328831,25.183794 37.949085,25.020588 
	C46.244617,24.842920 52.507225,30.624819 52.928459,39.091869 
	C53.151779,43.580616 53.064648,48.088219 53.011593,52.586056 
	C52.978676,55.376507 53.899361,57.020859 57.003590,56.976341 
	C62.334225,56.899891 67.667542,56.899990 72.998177,56.976257 
	C76.103577,57.020691 77.021248,55.373455 76.988426,52.584274 
	C76.935501,48.086433 76.868912,43.580585 77.070007,39.089848 
	C77.369576,32.400421 82.054924,26.634428 88.065018,25.218220 
	C94.313156,23.745918 100.211006,26.530436 103.657639,32.401062 
	C105.294930,35.189842 104.825554,38.189045 105.019005,41.152748 
	C105.341461,46.092812 102.905174,52.311455 106.155510,55.655025 
	C109.633209,59.232491 115.989388,56.556789 121.067276,56.968090 
	C123.384743,57.155800 125.730042,57.000000 128.531357,57.000000 
	C129.000000,59.370556 129.000000,61.741116 129.000000,64.555832 
z"/>
<path fill="#000000" opacity="1.000000" stroke="none" 
	d="
M25.531321,1.000000 
	C25.999153,2.163507 25.253946,2.790150 24.310312,3.191717 
	C14.331244,7.438349 7.322097,14.625628 3.026411,24.544024 
	C2.789998,25.089886 2.150265,25.461069 1.349132,25.956779 
	C1.000000,18.566267 1.135427,11.128652 0.922570,3.701019 
	C0.853139,1.278223 1.483145,0.878726 3.754216,0.935193 
	C10.853173,1.111699 17.959295,1.000000 25.531321,1.000000 
z"/>
<path fill="#000000" opacity="1.000000" stroke="none" 
	d="
M129.000000,25.531321 
	C127.836487,25.999155 127.209854,25.253935 126.808289,24.310308 
	C122.561638,14.331251 115.374382,7.322087 105.455971,3.026415 
	C104.910110,2.790002 104.538933,2.150264 104.043221,1.349132 
	C111.433731,1.000000 118.871353,1.135427 126.298981,0.922571 
	C128.721771,0.853140 129.121292,1.483144 129.064819,3.754216 
	C128.888306,10.853173 129.000000,17.959295 129.000000,25.531321 
z"/>
<path fill="#000000" opacity="1.000000" stroke="none" 
	d="
M1.000000,104.468674 
	C2.163512,104.000847 2.790153,104.746063 3.191719,105.689697 
	C7.438347,115.668770 14.625637,122.677910 24.544037,126.973587 
	C25.089895,127.210007 25.461073,127.849739 25.956779,128.650879 
	C18.566265,129.000000 11.128650,128.864563 3.701016,129.077423 
	C1.278210,129.146866 0.878728,128.516846 0.935194,126.245781 
	C1.111697,119.146820 1.000000,112.040703 1.000000,104.468674 
z"/>
<path fill="#000000" opacity="1.000000" stroke="none" 
	d="
M104.468674,129.000000 
	C104.000862,127.836502 104.746048,127.209854 105.689697,126.808281 
	C115.668777,122.561668 122.677910,115.374359 126.973602,105.455971 
	C127.210022,104.910110 127.849747,104.538933 128.650879,104.043221 
	C129.000000,111.433731 128.864563,118.871353 129.077423,126.298981 
	C129.146881,128.721802 128.516846,129.121246 126.245781,129.064804 
	C119.146820,128.888290 112.040703,129.000000 104.468674,129.000000 
z"/>
<path fill="#000000" opacity="1.000000" stroke="none" 
	d="
M78.531342,1.000000 
	C75.431664,4.942212 70.009956,5.989511 66.022072,9.300476 
	C64.962921,10.179838 63.576763,9.486660 62.826180,8.779605 
	C59.413017,5.564357 54.739120,4.502900 51.056488,1.347247 
	C60.020893,1.000000 69.041786,1.000000 78.531342,1.000000 
z"/>
</svg>